<svg xmlns="http://www.w3.org/2000/svg" xmlns:xlink="http://www.w3.org/1999/xlink" width="500" zoomAndPan="magnify" viewBox="0 0 375 374.999991" height="500" preserveAspectRatio="xMidYMid meet" version="1.0"><defs><g/><clipPath id="91a2924846"><path d="M 190 93.898438 L 207 93.898438 L 207 138 L 190 138 Z M 190 93.898438 " clip-rule="nonzero"/></clipPath><clipPath id="263e29810b"><path d="M 168 93.898438 L 185 93.898438 L 185 138 L 168 138 Z M 168 93.898438 " clip-rule="nonzero"/></clipPath><clipPath id="16bc7075e1"><path d="M 128.109375 131 L 175 131 L 175 150 L 128.109375 150 Z M 128.109375 131 " clip-rule="nonzero"/></clipPath><clipPath id="05bbe3727e"><path d="M 128.109375 153 L 175 153 L 175 171 L 128.109375 171 Z M 128.109375 153 " clip-rule="nonzero"/></clipPath><clipPath id="b397c5f49a"><path d="M 190 165 L 207 165 L 207 208.648438 L 190 208.648438 Z M 190 165 " clip-rule="nonzero"/></clipPath><clipPath id="02f3b51cfc"><path d="M 168 165 L 185 165 L 185 208.648438 L 168 208.648438 Z M 168 165 " clip-rule="nonzero"/></clipPath><clipPath id="1255a5d858"><path d="M 200 153 L 246.609375 153 L 246.609375 171 L 200 171 Z M 200 153 " clip-rule="nonzero"/></clipPath><clipPath id="2a191e4fd6"><path d="M 200 131 L 246.609375 131 L 246.609375 150 L 200 150 Z M 200 131 " clip-rule="nonzero"/></clipPath></defs><g clip-path="url(#91a2924846)"><path fill="#584910" d="M 192.632812 134.574219 L 192.632812 126.328125 L 199.570312 122.609375 C 201.863281 121.378906 203.679688 119.640625 204.921875 117.566406 C 206.167969 115.492188 206.839844 112.785156 206.839844 110.179688 L 206.839844 93.898438 L 204.972656 94.976562 L 197.066406 99.5 C 194.875 100.742188 193.140625 102.480469 191.960938 104.515625 C 190.78125 106.5625 190.144531 110.527344 190.144531 113.054688 L 190.144531 120.675781 L 191.324219 120.042969 C 192.15625 119.601562 192.648438 118.785156 192.648438 117.839844 L 192.648438 113.054688 C 192.648438 110.96875 193.164062 109.039062 194.125 107.378906 C 195.085938 105.71875 196.511719 104.308594 198.324219 103.269531 L 204.363281 99.808594 L 204.363281 110.179688 C 204.363281 112.316406 203.820312 114.3125 202.808594 116 C 201.796875 117.695312 200.308594 119.109375 198.429688 120.121094 L 191.480469 123.839844 C 190.652344 124.28125 190.160156 125.097656 190.160156 126.042969 L 190.160156 137.398438 L 191.339844 136.761719 C 192.15625 136.335938 192.632812 135.519531 192.632812 134.574219 Z M 192.632812 134.574219 " fill-opacity="1" fill-rule="nonzero"/></g><g clip-path="url(#263e29810b)"><path fill="#584910" d="M 175.421875 122.621094 L 182.355469 126.34375 L 182.355469 134.585938 C 182.355469 135.53125 182.835938 136.347656 183.679688 136.789062 L 184.859375 137.425781 L 184.859375 126.070312 C 184.859375 125.125 184.363281 124.308594 183.535156 123.867188 L 176.589844 120.144531 C 174.707031 119.136719 173.21875 117.722656 172.207031 116.023438 C 171.195312 114.339844 170.652344 112.34375 170.652344 110.203125 L 170.652344 99.835938 L 176.691406 103.296875 C 178.492188 104.332031 179.917969 105.746094 180.890625 107.40625 C 181.851562 109.0625 182.367188 110.996094 182.367188 113.082031 L 182.367188 117.863281 C 182.367188 118.8125 182.863281 119.628906 183.691406 120.070312 L 184.871094 120.703125 L 184.871094 113.082031 C 184.871094 110.554688 184.234375 106.589844 183.054688 104.539062 C 181.863281 102.492188 180.140625 100.769531 177.949219 99.523438 L 170.042969 95 L 168.175781 93.925781 L 168.175781 110.203125 C 168.175781 112.796875 168.851562 115.507812 170.09375 117.59375 C 171.3125 119.652344 173.128906 121.390625 175.421875 122.621094 Z M 175.421875 122.621094 " fill-opacity="1" fill-rule="nonzero"/></g><path fill="#584910" d="M 155.71875 129.894531 L 159.386719 132.007812 L 162.332031 133.703125 L 162.371094 132.367188 C 162.394531 131.421875 161.941406 130.59375 161.125 130.113281 L 160.644531 129.839844 L 156.976562 127.730469 C 155.175781 126.691406 153.75 125.265625 152.789062 123.605469 C 151.832031 121.949219 151.324219 120.003906 151.339844 117.917969 L 151.363281 110.957031 L 160.347656 116.140625 C 162.199219 117.21875 163.652344 118.679688 164.613281 120.40625 C 165.570312 122.128906 166.0625 124.125 165.984375 126.265625 L 165.738281 134.144531 C 165.714844 135.089844 166.167969 135.921875 166.984375 136.386719 L 176.820312 142.0625 L 176.859375 140.714844 C 176.886719 139.769531 176.433594 138.941406 175.617188 138.472656 L 168.472656 134.351562 L 168.71875 126.484375 C 168.8125 123.890625 168.214844 121.441406 167.035156 119.328125 C 165.855469 117.21875 163.847656 115.273438 161.605469 113.976562 L 150.742188 107.714844 L 147.488281 105.835938 L 147.476562 107.988281 L 147.4375 117.101562 C 147.425781 119.628906 148.058594 121.988281 149.226562 124.035156 C 150.417969 126.09375 153.53125 128.625 155.71875 129.894531 Z M 155.71875 129.894531 " fill-opacity="1" fill-rule="nonzero"/><g clip-path="url(#16bc7075e1)"><path fill="#584910" d="M 142.238281 147.496094 C 144.480469 148.792969 147.164062 149.554688 149.589844 149.53125 C 152.011719 149.492188 154.425781 148.792969 156.640625 147.417969 L 163.328125 143.269531 L 170.46875 147.390625 C 171.285156 147.859375 172.234375 147.84375 173.035156 147.351562 L 174.175781 146.640625 L 164.339844 140.960938 C 163.523438 140.496094 162.578125 140.507812 161.773438 141 L 155.070312 145.164062 C 153.257812 146.289062 151.289062 146.871094 149.316406 146.898438 C 147.347656 146.925781 145.351562 146.40625 143.496094 145.34375 L 134.515625 140.160156 L 140.527344 136.660156 C 142.332031 135.609375 144.261719 135.078125 146.179688 135.078125 C 148.097656 135.078125 150.03125 135.597656 151.832031 136.632812 L 155.5 138.746094 L 155.980469 139.019531 C 156.796875 139.496094 157.742188 139.472656 158.546875 138.980469 L 159.6875 138.28125 L 156.742188 136.582031 L 153.074219 134.46875 C 150.886719 133.210938 147.140625 131.773438 144.765625 131.773438 C 142.410156 131.785156 140.050781 132.421875 137.859375 133.691406 L 129.976562 138.28125 L 128.113281 139.367188 L 131.367188 141.246094 Z M 142.238281 147.496094 " fill-opacity="1" fill-rule="nonzero"/></g><path fill="#584910" d="M 168.460938 168.207031 L 175.601562 164.085938 C 176.417969 163.621094 176.886719 162.789062 176.847656 161.84375 L 176.808594 160.496094 L 166.984375 166.171875 C 166.167969 166.652344 165.699219 167.480469 165.726562 168.414062 L 165.972656 176.296875 C 166.039062 178.421875 165.558594 180.429688 164.597656 182.15625 C 163.640625 183.878906 162.1875 185.34375 160.335938 186.417969 L 151.351562 191.601562 L 151.324219 184.644531 C 151.3125 182.554688 151.832031 180.625 152.777344 178.953125 C 153.738281 177.292969 155.148438 175.882812 156.964844 174.832031 L 160.632812 172.71875 L 161.113281 172.445312 C 161.929688 171.964844 162.394531 171.148438 162.355469 170.191406 L 162.316406 168.855469 L 159.375 170.554688 L 155.707031 172.667969 C 153.515625 173.921875 150.40625 176.464844 149.226562 178.511719 C 148.046875 180.558594 147.425781 182.917969 147.4375 185.445312 L 147.476562 194.558594 L 147.488281 196.710938 L 150.742188 194.832031 L 161.589844 188.570312 C 163.832031 187.273438 165.84375 185.328125 167.023438 183.21875 C 168.203125 181.105469 168.796875 178.65625 168.707031 176.0625 Z M 168.460938 168.207031 " fill-opacity="1" fill-rule="nonzero"/><g clip-path="url(#05bbe3727e)"><path fill="#584910" d="M 156.742188 165.992188 L 159.6875 164.292969 L 158.546875 163.59375 C 157.742188 163.101562 156.796875 163.074219 155.980469 163.554688 L 155.5 163.828125 L 151.832031 165.941406 C 150.03125 166.976562 148.085938 167.507812 146.179688 167.496094 C 144.261719 167.496094 142.332031 166.964844 140.527344 165.914062 L 134.515625 162.414062 L 143.496094 157.230469 C 145.351562 156.152344 147.347656 155.636719 149.316406 155.675781 C 151.289062 155.699219 153.269531 156.28125 155.070312 157.410156 L 161.773438 161.570312 C 162.578125 162.078125 163.523438 162.078125 164.339844 161.609375 L 174.175781 155.933594 L 173.035156 155.21875 C 172.234375 154.726562 171.285156 154.714844 170.46875 155.179688 L 163.328125 159.304688 L 156.640625 155.15625 C 154.4375 153.78125 152.011719 153.082031 149.589844 153.042969 C 147.164062 153.003906 144.480469 153.769531 142.238281 155.078125 L 131.390625 161.339844 L 128.136719 163.21875 L 130.003906 164.304688 L 137.886719 168.894531 C 140.0625 170.164062 142.421875 170.800781 144.792969 170.8125 C 147.152344 170.8125 150.910156 169.386719 153.101562 168.117188 Z M 156.742188 165.992188 " fill-opacity="1" fill-rule="nonzero"/></g><g clip-path="url(#b397c5f49a)"><path fill="#584910" d="M 199.582031 179.9375 L 192.648438 176.21875 L 192.648438 167.988281 C 192.648438 167.042969 192.15625 166.226562 191.324219 165.785156 L 190.144531 165.148438 L 190.144531 176.503906 C 190.144531 177.449219 190.636719 178.265625 191.46875 178.707031 L 198.414062 182.425781 C 200.292969 183.4375 201.785156 184.851562 202.796875 186.546875 C 203.808594 188.234375 204.351562 190.230469 204.351562 192.367188 L 204.351562 202.738281 L 198.3125 199.277344 C 196.511719 198.238281 195.085938 196.839844 194.113281 195.179688 C 193.152344 193.523438 192.632812 191.589844 192.632812 189.503906 L 192.632812 184.722656 C 192.632812 183.773438 192.140625 182.957031 191.3125 182.515625 L 190.132812 181.882812 L 190.132812 189.503906 C 190.132812 192.03125 190.769531 195.996094 191.949219 198.046875 C 193.128906 200.09375 194.863281 201.816406 197.054688 203.0625 L 204.960938 207.585938 L 206.828125 208.660156 L 206.828125 192.382812 C 206.828125 189.789062 206.152344 187.078125 204.910156 184.992188 C 203.691406 182.90625 201.863281 181.167969 199.582031 179.9375 Z M 199.582031 179.9375 " fill-opacity="1" fill-rule="nonzero"/></g><g clip-path="url(#02f3b51cfc)"><path fill="#584910" d="M 182.355469 167.988281 L 182.355469 176.230469 L 175.421875 179.949219 C 173.128906 181.167969 171.3125 182.917969 170.070312 184.992188 C 168.824219 187.078125 168.148438 189.789062 168.148438 192.382812 L 168.148438 208.660156 L 170.015625 207.585938 L 177.9375 203.0625 C 180.125 201.816406 181.863281 200.082031 183.042969 198.046875 C 184.222656 195.996094 184.859375 192.03125 184.859375 189.503906 L 184.859375 181.882812 L 183.679688 182.515625 C 182.847656 182.957031 182.355469 183.773438 182.355469 184.722656 L 182.355469 189.503906 C 182.355469 191.589844 181.835938 193.523438 180.878906 195.179688 C 179.917969 196.839844 178.492188 198.253906 176.679688 199.277344 L 170.640625 202.738281 L 170.640625 192.367188 C 170.640625 190.230469 171.183594 188.234375 172.195312 186.546875 C 173.207031 184.851562 174.695312 183.4375 176.574219 182.425781 L 183.523438 178.707031 C 184.351562 178.265625 184.84375 177.449219 184.84375 176.503906 L 184.84375 165.148438 L 183.664062 165.785156 C 182.847656 166.226562 182.355469 167.042969 182.355469 167.988281 Z M 182.355469 167.988281 " fill-opacity="1" fill-rule="nonzero"/></g><g clip-path="url(#1255a5d858)"><path fill="#584910" d="M 243.597656 161.324219 L 232.75 155.066406 C 230.507812 153.769531 227.824219 152.992188 225.402344 153.03125 C 222.976562 153.070312 220.566406 153.769531 218.351562 155.140625 L 211.664062 159.289062 L 204.519531 155.167969 C 203.703125 154.703125 202.757812 154.703125 201.953125 155.207031 L 200.8125 155.921875 L 210.652344 161.597656 C 211.46875 162.0625 212.414062 162.050781 213.21875 161.558594 L 219.917969 157.398438 C 221.734375 156.269531 223.703125 155.6875 225.671875 155.660156 C 227.644531 155.636719 229.640625 156.152344 231.492188 157.214844 L 240.476562 162.402344 L 234.460938 165.902344 C 232.660156 166.949219 230.730469 167.480469 228.808594 167.480469 C 226.890625 167.480469 224.960938 166.964844 223.160156 165.925781 L 219.492188 163.8125 L 219.011719 163.542969 C 218.195312 163.0625 217.25 163.089844 216.445312 163.582031 L 215.304688 164.28125 L 218.246094 165.976562 L 221.914062 168.089844 C 224.105469 169.347656 227.851562 170.789062 230.222656 170.789062 C 232.582031 170.773438 234.941406 170.140625 237.132812 168.867188 L 245.011719 164.28125 L 246.878906 163.191406 Z M 243.597656 161.324219 " fill-opacity="1" fill-rule="nonzero"/></g><path fill="#584910" d="M 219.269531 172.667969 L 215.601562 170.554688 L 212.660156 168.855469 L 212.632812 170.191406 C 212.609375 171.136719 213.0625 171.964844 213.878906 172.445312 L 214.359375 172.71875 L 218.027344 174.832031 C 219.828125 175.867188 221.253906 177.292969 222.199219 178.953125 C 223.160156 180.613281 223.664062 182.554688 223.652344 184.628906 L 223.625 191.589844 L 214.644531 186.40625 C 212.789062 185.328125 211.339844 183.867188 210.378906 182.140625 C 209.417969 180.417969 208.925781 178.421875 209.003906 176.28125 L 209.25 168.402344 C 209.277344 167.457031 208.824219 166.625 207.992188 166.160156 L 198.15625 160.484375 L 198.117188 161.832031 C 198.089844 162.777344 198.546875 163.605469 199.363281 164.074219 L 206.503906 168.195312 L 206.246094 176.0625 C 206.152344 178.65625 206.75 181.105469 207.929688 183.21875 C 209.109375 185.328125 211.117188 187.273438 213.359375 188.570312 L 224.207031 194.832031 L 227.460938 196.710938 L 227.476562 194.558594 L 227.515625 185.445312 C 227.527344 182.917969 226.890625 180.558594 225.726562 178.511719 C 224.585938 176.464844 221.460938 173.9375 219.269531 172.667969 Z M 219.269531 172.667969 " fill-opacity="1" fill-rule="nonzero"/><path fill="#584910" d="M 206.53125 134.351562 L 199.386719 138.472656 C 198.570312 138.941406 198.105469 139.769531 198.144531 140.714844 L 198.183594 142.0625 L 208.019531 136.386719 C 208.835938 135.90625 209.304688 135.078125 209.277344 134.144531 L 209.03125 126.265625 C 208.964844 124.125 209.445312 122.128906 210.40625 120.40625 C 211.363281 118.679688 212.804688 117.21875 214.667969 116.140625 L 223.652344 110.957031 L 223.675781 117.917969 C 223.691406 120.003906 223.171875 121.933594 222.226562 123.605469 C 221.265625 125.265625 219.855469 126.679688 218.039062 127.730469 L 214.371094 129.839844 L 213.890625 130.113281 C 213.074219 130.59375 212.609375 131.410156 212.648438 132.355469 L 212.6875 133.691406 L 215.628906 131.992188 L 219.296875 129.878906 C 221.488281 128.625 224.597656 126.082031 225.777344 124.035156 C 226.957031 121.988281 227.578125 119.628906 227.566406 117.101562 L 227.527344 107.988281 L 227.515625 105.835938 L 224.261719 107.714844 L 213.410156 113.976562 C 211.167969 115.273438 209.160156 117.21875 207.980469 119.328125 C 206.800781 121.441406 206.207031 123.890625 206.296875 126.484375 Z M 206.53125 134.351562 " fill-opacity="1" fill-rule="nonzero"/><g clip-path="url(#2a191e4fd6)"><path fill="#584910" d="M 218.246094 136.570312 L 215.304688 138.265625 L 216.445312 138.964844 C 217.25 139.460938 218.195312 139.484375 219.011719 139.003906 L 219.492188 138.734375 L 223.160156 136.621094 C 224.960938 135.582031 226.90625 135.050781 228.808594 135.066406 C 230.730469 135.066406 232.660156 135.597656 234.460938 136.644531 L 240.476562 140.144531 L 231.492188 145.332031 C 229.640625 146.40625 227.644531 146.925781 225.671875 146.886719 C 223.703125 146.859375 221.71875 146.277344 219.917969 145.148438 L 213.21875 140.988281 C 212.414062 140.484375 211.46875 140.46875 210.652344 140.949219 L 200.8125 146.625 L 201.953125 147.328125 C 202.757812 147.820312 203.703125 147.84375 204.519531 147.367188 L 211.664062 143.242188 L 218.351562 147.390625 C 220.554688 148.765625 222.976562 149.464844 225.402344 149.503906 C 227.824219 149.542969 230.507812 148.777344 232.75 147.46875 L 243.597656 141.207031 L 246.851562 139.328125 L 244.984375 138.242188 L 237.105469 133.652344 C 234.929688 132.382812 232.570312 131.746094 230.195312 131.734375 C 227.839844 131.734375 224.078125 133.160156 221.890625 134.429688 Z M 218.246094 136.570312 " fill-opacity="1" fill-rule="nonzero"/></g><g fill="#584910" fill-opacity="1"><g transform="translate(131.155666, 274.813487)"><g><path d="M 2.625 -1.765625 C 2.539062 -2.171875 2.5 -2.945312 2.5 -4.09375 C 2.5 -5.238281 2.710938 -6.457031 3.140625 -7.75 L 3.53125 -7.75 C 3.5 -7.4375 3.484375 -7.125 3.484375 -6.8125 C 3.484375 -5.050781 4.015625 -3.585938 5.078125 -2.421875 C 6.140625 -1.265625 7.550781 -0.6875 9.3125 -0.6875 C 11.113281 -0.6875 12.597656 -1.234375 13.765625 -2.328125 C 14.929688 -3.421875 15.515625 -4.789062 15.515625 -6.4375 C 15.515625 -8.09375 14.953125 -9.4375 13.828125 -10.46875 L 5.5625 -18.140625 C 4.007812 -19.578125 3.234375 -21.3125 3.234375 -23.34375 C 3.234375 -25.382812 3.914062 -27.128906 5.28125 -28.578125 C 6.644531 -30.035156 8.488281 -30.765625 10.8125 -30.765625 C 11.90625 -30.765625 13.140625 -30.617188 14.515625 -30.328125 L 16.203125 -30.328125 L 16.203125 -25.03125 L 15.8125 -25.03125 C 15.8125 -26.375 15.34375 -27.445312 14.40625 -28.25 C 13.476562 -29.0625 12.28125 -29.46875 10.8125 -29.46875 C 9.34375 -29.46875 8.113281 -28.976562 7.125 -28 C 6.132812 -27.019531 5.640625 -25.796875 5.640625 -24.328125 C 5.640625 -22.867188 6.210938 -21.609375 7.359375 -20.546875 L 15.859375 -12.703125 C 17.285156 -11.378906 18 -9.566406 18 -7.265625 C 18 -4.972656 17.265625 -3.085938 15.796875 -1.609375 C 14.335938 -0.128906 12.390625 0.609375 9.953125 0.609375 C 8.691406 0.609375 7.347656 0.410156 5.921875 0.015625 C 4.503906 -0.367188 3.40625 -0.960938 2.625 -1.765625 Z M 2.625 -1.765625 "/></g></g></g><g fill="#584910" fill-opacity="1"><g transform="translate(153.765912, 274.813487)"><g><path d="M 25.375 -26.328125 C 25.375 -27.015625 25.128906 -27.609375 24.640625 -28.109375 C 24.148438 -28.609375 23.578125 -28.875 22.921875 -28.90625 L 14.734375 -28.90625 L 14.734375 -3.109375 C 14.765625 -2.359375 15.046875 -1.722656 15.578125 -1.203125 C 16.109375 -0.691406 16.742188 -0.4375 17.484375 -0.4375 L 18.046875 -0.4375 L 18.046875 0 L 8.609375 0 L 8.609375 -0.4375 L 9.171875 -0.4375 C 9.921875 -0.4375 10.5625 -0.691406 11.09375 -1.203125 C 11.625 -1.722656 11.90625 -2.34375 11.9375 -3.0625 L 11.9375 -28.90625 L 3.75 -28.90625 C 3.0625 -28.875 2.476562 -28.609375 2 -28.109375 C 1.53125 -27.609375 1.296875 -27.015625 1.296875 -26.328125 L 1.296875 -25.59375 L 0.859375 -25.546875 L 0.859375 -30.96875 C 1.285156 -30.800781 2.03125 -30.628906 3.09375 -30.453125 C 4.164062 -30.285156 5.144531 -30.203125 6.03125 -30.203125 L 20.59375 -30.203125 C 22 -30.203125 23.164062 -30.304688 24.09375 -30.515625 C 25.03125 -30.734375 25.597656 -30.882812 25.796875 -30.96875 L 25.796875 -25.546875 L 25.375 -25.59375 Z M 25.375 -26.328125 "/></g></g></g><g fill="#584910" fill-opacity="1"><g transform="translate(182.534669, 274.813487)"><g><path d="M 30.84375 -0.4375 L 31.1875 -0.4375 L 31.1875 0 L 21.5 0 L 21.5 -0.4375 L 21.890625 -0.4375 C 22.492188 -0.4375 22.945312 -0.628906 23.25 -1.015625 C 23.550781 -1.398438 23.703125 -1.765625 23.703125 -2.109375 C 23.703125 -2.453125 23.644531 -2.796875 23.53125 -3.140625 L 20.765625 -10.46875 L 9.140625 -10.46875 L 6.25 -3.109375 C 6.132812 -2.753906 6.078125 -2.410156 6.078125 -2.078125 C 6.078125 -1.753906 6.226562 -1.398438 6.53125 -1.015625 C 6.832031 -0.628906 7.285156 -0.4375 7.890625 -0.4375 L 8.28125 -0.4375 L 8.28125 0 L -0.390625 0 L -0.390625 -0.4375 L 0 -0.4375 C 0.71875 -0.4375 1.421875 -0.664062 2.109375 -1.125 C 2.804688 -1.582031 3.367188 -2.253906 3.796875 -3.140625 L 13.53125 -26.328125 C 14.59375 -28.648438 15.125 -30.128906 15.125 -30.765625 L 15.515625 -30.765625 L 27.0625 -3.140625 C 27.457031 -2.253906 28 -1.582031 28.6875 -1.125 C 29.382812 -0.664062 30.101562 -0.4375 30.84375 -0.4375 Z M 9.65625 -11.765625 L 20.25 -11.765625 L 15.078125 -25.59375 Z M 9.65625 -11.765625 "/></g></g></g><g fill="#584910" fill-opacity="1"><g transform="translate(215.35167, 274.813487)"><g><path d="M 29 -29.71875 L 28.390625 -29.71875 C 27.523438 -29.71875 26.710938 -29.476562 25.953125 -29 C 25.191406 -28.53125 24.554688 -27.9375 24.046875 -27.21875 L 15.5625 -13.4375 L 15.5625 -3.140625 C 15.5625 -2.398438 15.828125 -1.765625 16.359375 -1.234375 C 16.890625 -0.703125 17.539062 -0.4375 18.3125 -0.4375 L 18.828125 -0.4375 L 18.828125 0 L 9.4375 0 L 9.4375 -0.4375 L 10 -0.4375 C 10.75 -0.4375 11.390625 -0.691406 11.921875 -1.203125 C 12.453125 -1.722656 12.726562 -2.359375 12.75 -3.109375 L 12.75 -13.484375 L 4.53125 -27.21875 C 4.09375 -27.914062 3.476562 -28.503906 2.6875 -28.984375 C 1.90625 -29.472656 1.082031 -29.71875 0.21875 -29.71875 L -0.390625 -29.71875 L -0.390625 -30.15625 L 10.21875 -30.15625 L 10.21875 -29.71875 L 9.65625 -29.71875 C 9.019531 -29.71875 8.53125 -29.429688 8.1875 -28.859375 C 8.019531 -28.546875 7.9375 -28.238281 7.9375 -27.9375 C 7.9375 -27.632812 8.003906 -27.335938 8.140625 -27.046875 L 14.609375 -14.984375 L 21.5 -27.09375 C 21.644531 -27.382812 21.71875 -27.671875 21.71875 -27.953125 C 21.71875 -28.242188 21.613281 -28.546875 21.40625 -28.859375 C 21.0625 -29.429688 20.578125 -29.71875 19.953125 -29.71875 L 19.4375 -29.71875 L 19.4375 -30.15625 L 29 -30.15625 Z M 29 -29.71875 "/></g></g></g><g fill="#584910" fill-opacity="1"><g transform="translate(159.850912, 232.936864)"><g><path d="M 0.515625 -0.0625 C 0.628906 -0.0625 0.726562 -0.101562 0.8125 -0.1875 C 0.90625 -0.28125 0.953125 -0.390625 0.953125 -0.515625 L 0.953125 -4.390625 C 0.953125 -4.515625 0.90625 -4.617188 0.8125 -4.703125 C 0.726562 -4.785156 0.628906 -4.828125 0.515625 -4.828125 L 0.421875 -4.828125 L 0.421875 -4.90625 L 1.953125 -4.90625 L 1.953125 -4.828125 L 1.859375 -4.828125 C 1.691406 -4.828125 1.566406 -4.753906 1.484375 -4.609375 C 1.429688 -4.546875 1.40625 -4.472656 1.40625 -4.390625 L 1.40625 -0.21875 L 2.421875 -0.21875 C 2.765625 -0.21875 3.023438 -0.289062 3.203125 -0.4375 C 3.390625 -0.59375 3.539062 -0.828125 3.65625 -1.140625 L 3.734375 -1.140625 L 3.328125 0 L 0.421875 0 L 0.421875 -0.0625 Z M 0.515625 -0.0625 "/></g></g></g><g fill="#584910" fill-opacity="1"><g transform="translate(169.056055, 232.936864)"><g><path d="M 5.140625 -4.828125 L 5.03125 -4.828125 C 4.9375 -4.828125 4.851562 -4.796875 4.78125 -4.734375 C 4.707031 -4.671875 4.664062 -4.59375 4.65625 -4.5 L 4.65625 -1.734375 C 4.65625 -1.179688 4.484375 -0.738281 4.140625 -0.40625 C 3.796875 -0.0703125 3.335938 0.09375 2.765625 0.09375 C 2.191406 0.09375 1.722656 -0.0703125 1.359375 -0.40625 C 1.003906 -0.738281 0.828125 -1.175781 0.828125 -1.71875 L 0.828125 -4.484375 C 0.828125 -4.617188 0.769531 -4.71875 0.65625 -4.78125 C 0.59375 -4.8125 0.53125 -4.828125 0.46875 -4.828125 L 0.34375 -4.828125 L 0.34375 -4.90625 L 1.765625 -4.90625 L 1.765625 -4.828125 L 1.65625 -4.828125 C 1.550781 -4.828125 1.460938 -4.796875 1.390625 -4.734375 C 1.328125 -4.671875 1.289062 -4.59375 1.28125 -4.5 L 1.28125 -1.8125 C 1.28125 -1.3125 1.414062 -0.90625 1.6875 -0.59375 C 1.96875 -0.28125 2.335938 -0.125 2.796875 -0.125 C 3.253906 -0.125 3.625 -0.269531 3.90625 -0.5625 C 4.1875 -0.863281 4.328125 -1.253906 4.328125 -1.734375 L 4.328125 -4.5 C 4.328125 -4.59375 4.289062 -4.671875 4.21875 -4.734375 C 4.144531 -4.796875 4.0625 -4.828125 3.96875 -4.828125 L 3.84375 -4.828125 L 3.84375 -4.90625 L 5.140625 -4.90625 Z M 5.140625 -4.828125 "/></g></g></g><g fill="#584910" fill-opacity="1"><g transform="translate(179.822223, 232.936864)"><g><path d="M 4.609375 -0.0625 L 4.71875 -0.0625 L 4.71875 0 L 3 0 L 3 -0.0625 L 3.09375 -0.0625 C 3.1875 -0.0625 3.265625 -0.109375 3.328125 -0.203125 C 3.359375 -0.253906 3.375 -0.300781 3.375 -0.34375 C 3.375 -0.394531 3.363281 -0.445312 3.34375 -0.5 L 2.265625 -2.203125 L 1.1875 -0.5 C 1.15625 -0.457031 1.140625 -0.410156 1.140625 -0.359375 C 1.140625 -0.304688 1.15625 -0.257812 1.1875 -0.21875 C 1.25 -0.113281 1.328125 -0.0625 1.421875 -0.0625 L 1.515625 -0.0625 L 1.515625 0 L -0.0625 0 L -0.0625 -0.0625 L 0.03125 -0.0625 C 0.164062 -0.0625 0.296875 -0.101562 0.421875 -0.1875 C 0.546875 -0.269531 0.648438 -0.367188 0.734375 -0.484375 L 2.078125 -2.484375 L 0.859375 -4.421875 C 0.742188 -4.578125 0.597656 -4.695312 0.421875 -4.78125 C 0.328125 -4.8125 0.234375 -4.828125 0.140625 -4.828125 L 0.046875 -4.828125 L 0.046875 -4.90625 L 1.75 -4.90625 L 1.75 -4.828125 L 1.65625 -4.828125 C 1.5625 -4.828125 1.484375 -4.78125 1.421875 -4.6875 C 1.390625 -4.632812 1.375 -4.582031 1.375 -4.53125 C 1.375 -4.488281 1.382812 -4.445312 1.40625 -4.40625 L 2.375 -2.890625 L 3.328125 -4.390625 C 3.347656 -4.441406 3.359375 -4.488281 3.359375 -4.53125 C 3.359375 -4.582031 3.347656 -4.632812 3.328125 -4.6875 C 3.265625 -4.78125 3.1875 -4.828125 3.09375 -4.828125 L 3 -4.828125 L 3 -4.90625 L 4.578125 -4.90625 L 4.578125 -4.828125 L 4.484375 -4.828125 C 4.335938 -4.828125 4.203125 -4.785156 4.078125 -4.703125 C 3.960938 -4.628906 3.859375 -4.535156 3.765625 -4.421875 L 2.546875 -2.609375 L 3.90625 -0.46875 C 4.019531 -0.3125 4.160156 -0.195312 4.328125 -0.125 C 4.421875 -0.0820312 4.515625 -0.0625 4.609375 -0.0625 Z M 4.609375 -0.0625 "/></g></g></g><g fill="#584910" fill-opacity="1"><g transform="translate(189.727382, 232.936864)"><g><path d="M 5.140625 -4.828125 L 5.03125 -4.828125 C 4.9375 -4.828125 4.851562 -4.796875 4.78125 -4.734375 C 4.707031 -4.671875 4.664062 -4.59375 4.65625 -4.5 L 4.65625 -1.734375 C 4.65625 -1.179688 4.484375 -0.738281 4.140625 -0.40625 C 3.796875 -0.0703125 3.335938 0.09375 2.765625 0.09375 C 2.191406 0.09375 1.722656 -0.0703125 1.359375 -0.40625 C 1.003906 -0.738281 0.828125 -1.175781 0.828125 -1.71875 L 0.828125 -4.484375 C 0.828125 -4.617188 0.769531 -4.71875 0.65625 -4.78125 C 0.59375 -4.8125 0.53125 -4.828125 0.46875 -4.828125 L 0.34375 -4.828125 L 0.34375 -4.90625 L 1.765625 -4.90625 L 1.765625 -4.828125 L 1.65625 -4.828125 C 1.550781 -4.828125 1.460938 -4.796875 1.390625 -4.734375 C 1.328125 -4.671875 1.289062 -4.59375 1.28125 -4.5 L 1.28125 -1.8125 C 1.28125 -1.3125 1.414062 -0.90625 1.6875 -0.59375 C 1.96875 -0.28125 2.335938 -0.125 2.796875 -0.125 C 3.253906 -0.125 3.625 -0.269531 3.90625 -0.5625 C 4.1875 -0.863281 4.328125 -1.253906 4.328125 -1.734375 L 4.328125 -4.5 C 4.328125 -4.59375 4.289062 -4.671875 4.21875 -4.734375 C 4.144531 -4.796875 4.0625 -4.828125 3.96875 -4.828125 L 3.84375 -4.828125 L 3.84375 -4.90625 L 5.140625 -4.90625 Z M 5.140625 -4.828125 "/></g></g></g><g fill="#584910" fill-opacity="1"><g transform="translate(200.49355, 232.936864)"><g><path d="M 1.859375 -4.6875 L 1.40625 -4.6875 L 1.40625 -0.515625 C 1.40625 -0.390625 1.445312 -0.28125 1.53125 -0.1875 C 1.625 -0.101562 1.734375 -0.0625 1.859375 -0.0625 L 1.953125 -0.0625 L 1.953125 0 L 0.421875 0 L 0.421875 -0.0625 L 0.515625 -0.0625 C 0.628906 -0.0625 0.726562 -0.101562 0.8125 -0.1875 C 0.90625 -0.28125 0.953125 -0.382812 0.953125 -0.5 L 0.953125 -4.390625 C 0.953125 -4.515625 0.90625 -4.617188 0.8125 -4.703125 C 0.726562 -4.785156 0.628906 -4.828125 0.515625 -4.828125 L 0.421875 -4.828125 L 0.421875 -4.90625 L 2.3125 -4.90625 C 2.738281 -4.90625 3.070312 -4.785156 3.3125 -4.546875 C 3.550781 -4.304688 3.671875 -4 3.671875 -3.625 C 3.671875 -3.25 3.554688 -2.925781 3.328125 -2.65625 C 3.097656 -2.382812 2.816406 -2.25 2.484375 -2.25 C 2.554688 -2.21875 2.640625 -2.148438 2.734375 -2.046875 C 2.828125 -1.953125 2.910156 -1.851562 2.984375 -1.75 C 3.390625 -1.175781 3.648438 -0.820312 3.765625 -0.6875 C 3.890625 -0.5625 3.976562 -0.472656 4.03125 -0.421875 C 4.082031 -0.367188 4.140625 -0.316406 4.203125 -0.265625 C 4.265625 -0.222656 4.320312 -0.191406 4.375 -0.171875 C 4.507812 -0.0976562 4.65625 -0.0625 4.8125 -0.0625 L 4.8125 0 L 4.4375 0 C 4.226562 0 4.035156 -0.0351562 3.859375 -0.109375 C 3.691406 -0.179688 3.566406 -0.253906 3.484375 -0.328125 C 3.398438 -0.410156 3.320312 -0.488281 3.25 -0.5625 C 3.1875 -0.632812 3.015625 -0.875 2.734375 -1.28125 C 2.453125 -1.6875 2.285156 -1.921875 2.234375 -1.984375 C 2.191406 -2.046875 2.144531 -2.101562 2.09375 -2.15625 C 1.945312 -2.3125 1.796875 -2.390625 1.640625 -2.390625 L 1.640625 -2.46875 C 1.679688 -2.457031 1.734375 -2.453125 1.796875 -2.453125 C 1.859375 -2.453125 1.929688 -2.457031 2.015625 -2.46875 C 2.597656 -2.476562 2.960938 -2.71875 3.109375 -3.1875 C 3.140625 -3.28125 3.15625 -3.367188 3.15625 -3.453125 C 3.15625 -3.535156 3.15625 -3.585938 3.15625 -3.609375 C 3.144531 -3.921875 3.0625 -4.171875 2.90625 -4.359375 C 2.75 -4.554688 2.539062 -4.660156 2.28125 -4.671875 C 2.164062 -4.679688 2.023438 -4.6875 1.859375 -4.6875 Z M 1.859375 -4.6875 "/></g></g></g><g fill="#584910" fill-opacity="1"><g transform="translate(210.503703, 232.936864)"><g><path d="M 4.703125 -4.828125 L 4.609375 -4.828125 C 4.460938 -4.828125 4.328125 -4.785156 4.203125 -4.703125 C 4.085938 -4.628906 3.988281 -4.535156 3.90625 -4.421875 L 2.515625 -2.1875 L 2.515625 -0.515625 C 2.515625 -0.390625 2.554688 -0.28125 2.640625 -0.1875 C 2.734375 -0.101562 2.84375 -0.0625 2.96875 -0.0625 L 3.046875 -0.0625 L 3.046875 0 L 1.53125 0 L 1.53125 -0.0625 L 1.609375 -0.0625 C 1.734375 -0.0625 1.835938 -0.101562 1.921875 -0.1875 C 2.015625 -0.28125 2.0625 -0.382812 2.0625 -0.5 L 2.0625 -2.1875 L 0.734375 -4.421875 C 0.660156 -4.535156 0.554688 -4.628906 0.421875 -4.703125 C 0.296875 -4.785156 0.164062 -4.828125 0.03125 -4.828125 L -0.0625 -4.828125 L -0.0625 -4.90625 L 1.65625 -4.90625 L 1.65625 -4.828125 L 1.5625 -4.828125 C 1.457031 -4.828125 1.378906 -4.78125 1.328125 -4.6875 C 1.296875 -4.632812 1.28125 -4.582031 1.28125 -4.53125 C 1.28125 -4.488281 1.289062 -4.441406 1.3125 -4.390625 L 2.359375 -2.4375 L 3.484375 -4.40625 C 3.503906 -4.445312 3.515625 -4.488281 3.515625 -4.53125 C 3.515625 -4.582031 3.5 -4.632812 3.46875 -4.6875 C 3.414062 -4.78125 3.335938 -4.828125 3.234375 -4.828125 L 3.15625 -4.828125 L 3.15625 -4.90625 L 4.703125 -4.90625 Z M 4.703125 -4.828125 "/></g></g></g><path stroke-linecap="butt" transform="matrix(0.75, 0, 0, 0.75, 104.4255, 230.436839)" fill="none" stroke-linejoin="miter" d="M 0.000374943 0.500881 L 55.30767 0.500881 " stroke="#584910" stroke-width="1" stroke-opacity="1" stroke-miterlimit="4"/><path stroke-linecap="butt" transform="matrix(0.75, 0, 0, 0.75, 229.095371, 229.686839)" fill="none" stroke-linejoin="miter" d="M -0.00216141 0.500881 L 55.305134 0.500881 " stroke="#584910" stroke-width="1" stroke-opacity="1" stroke-miterlimit="4"/><g fill="#584910" fill-opacity="1"><g transform="translate(92.924653, 298.940136)"><g><path d="M 7.109375 -0.125 C 7.335938 -0.125 7.53125 -0.203125 7.6875 -0.359375 C 7.851562 -0.515625 7.9375 -0.707031 7.9375 -0.9375 L 7.9375 -4.296875 L 2.625 -4.296875 L 2.625 -0.953125 C 2.625 -0.722656 2.707031 -0.523438 2.875 -0.359375 C 3.039062 -0.203125 3.234375 -0.125 3.453125 -0.125 L 3.625 -0.125 L 3.625 0 L 0.78125 0 L 0.78125 -0.125 L 0.953125 -0.125 C 1.171875 -0.125 1.359375 -0.203125 1.515625 -0.359375 C 1.679688 -0.523438 1.769531 -0.722656 1.78125 -0.953125 L 1.78125 -8.15625 C 1.769531 -8.382812 1.679688 -8.578125 1.515625 -8.734375 C 1.359375 -8.890625 1.171875 -8.96875 0.953125 -8.96875 L 0.78125 -8.96875 L 0.78125 -9.09375 L 3.625 -9.09375 L 3.625 -8.96875 L 3.453125 -8.96875 C 3.234375 -8.96875 3.039062 -8.890625 2.875 -8.734375 C 2.71875 -8.578125 2.632812 -8.382812 2.625 -8.15625 L 2.625 -4.6875 L 7.9375 -4.6875 L 7.9375 -8.15625 C 7.9375 -8.46875 7.800781 -8.703125 7.53125 -8.859375 C 7.394531 -8.929688 7.253906 -8.96875 7.109375 -8.96875 L 6.9375 -8.96875 L 6.9375 -9.09375 L 9.78125 -9.09375 L 9.78125 -8.96875 L 9.625 -8.96875 C 9.394531 -8.96875 9.195312 -8.882812 9.03125 -8.71875 C 8.875 -8.5625 8.789062 -8.375 8.78125 -8.15625 L 8.78125 -0.953125 C 8.789062 -0.722656 8.875 -0.523438 9.03125 -0.359375 C 9.195312 -0.203125 9.394531 -0.125 9.625 -0.125 L 9.78125 -0.125 L 9.78125 0 L 6.9375 0 L 6.9375 -0.125 Z M 7.109375 -0.125 "/></g></g></g><g fill="#584910" fill-opacity="1"><g transform="translate(113.890389, 298.940136)"><g><path d="M 2.203125 -7.96875 C 3.066406 -8.84375 4.191406 -9.28125 5.578125 -9.28125 C 6.960938 -9.28125 8.085938 -8.84375 8.953125 -7.96875 C 9.816406 -7.101562 10.25 -5.960938 10.25 -4.546875 C 10.25 -3.140625 9.816406 -2 8.953125 -1.125 C 8.085938 -0.25 6.960938 0.1875 5.578125 0.1875 C 4.191406 0.1875 3.066406 -0.25 2.203125 -1.125 C 1.335938 -2 0.90625 -3.140625 0.90625 -4.546875 C 0.90625 -5.960938 1.335938 -7.101562 2.203125 -7.96875 Z M 2.90625 -1.390625 C 3.582031 -0.597656 4.472656 -0.203125 5.578125 -0.203125 C 6.679688 -0.203125 7.566406 -0.597656 8.234375 -1.390625 C 8.910156 -2.191406 9.25 -3.242188 9.25 -4.546875 C 9.25 -5.410156 9.097656 -6.171875 8.796875 -6.828125 C 8.492188 -7.484375 8.0625 -7.988281 7.5 -8.34375 C 6.945312 -8.707031 6.304688 -8.890625 5.578125 -8.890625 C 4.472656 -8.890625 3.582031 -8.488281 2.90625 -7.6875 C 2.238281 -6.894531 1.90625 -5.847656 1.90625 -4.546875 C 1.90625 -3.242188 2.238281 -2.191406 2.90625 -1.390625 Z M 2.90625 -1.390625 "/></g></g></g><g fill="#584910" fill-opacity="1"><g transform="translate(135.181035, 298.940136)"><g><path d="M 0.796875 -0.53125 C 0.765625 -0.65625 0.75 -0.890625 0.75 -1.234375 C 0.75 -1.578125 0.816406 -1.945312 0.953125 -2.34375 L 1.0625 -2.34375 C 1.050781 -2.25 1.046875 -2.148438 1.046875 -2.046875 C 1.046875 -1.523438 1.207031 -1.085938 1.53125 -0.734375 C 1.851562 -0.378906 2.28125 -0.203125 2.8125 -0.203125 C 3.351562 -0.203125 3.800781 -0.367188 4.15625 -0.703125 C 4.507812 -1.035156 4.6875 -1.445312 4.6875 -1.9375 C 4.6875 -2.4375 4.515625 -2.84375 4.171875 -3.15625 L 1.671875 -5.46875 C 1.203125 -5.90625 0.96875 -6.429688 0.96875 -7.046875 C 0.96875 -7.660156 1.171875 -8.1875 1.578125 -8.625 C 1.992188 -9.0625 2.554688 -9.28125 3.265625 -9.28125 C 3.585938 -9.28125 3.957031 -9.238281 4.375 -9.15625 L 4.890625 -9.15625 L 4.890625 -7.546875 L 4.765625 -7.546875 C 4.765625 -7.953125 4.625 -8.273438 4.34375 -8.515625 C 4.0625 -8.765625 3.695312 -8.890625 3.25 -8.890625 C 2.8125 -8.890625 2.441406 -8.742188 2.140625 -8.453125 C 1.847656 -8.160156 1.703125 -7.789062 1.703125 -7.34375 C 1.703125 -6.90625 1.875 -6.523438 2.21875 -6.203125 L 4.78125 -3.828125 C 5.21875 -3.429688 5.4375 -2.882812 5.4375 -2.1875 C 5.4375 -1.5 5.210938 -0.929688 4.765625 -0.484375 C 4.328125 -0.0351562 3.738281 0.1875 3 0.1875 C 2.625 0.1875 2.21875 0.125 1.78125 0 C 1.351562 -0.113281 1.023438 -0.289062 0.796875 -0.53125 Z M 0.796875 -0.53125 "/></g></g></g><g fill="#584910" fill-opacity="1"><g transform="translate(151.754118, 298.940136)"><g><path d="M 6.84375 -6.59375 C 6.84375 -6.207031 6.765625 -5.851562 6.609375 -5.53125 C 6.328125 -4.914062 5.828125 -4.484375 5.109375 -4.234375 C 4.859375 -4.148438 4.640625 -4.109375 4.453125 -4.109375 C 3.921875 -4.109375 3.457031 -4.207031 3.0625 -4.40625 L 3.0625 -4.53125 C 3.695312 -4.394531 4.285156 -4.46875 4.828125 -4.75 C 5.296875 -4.988281 5.617188 -5.382812 5.796875 -5.9375 C 5.847656 -6.113281 5.875 -6.28125 5.875 -6.4375 C 5.875 -6.59375 5.875 -6.6875 5.875 -6.71875 C 5.851562 -7.320312 5.691406 -7.800781 5.390625 -8.15625 C 5.085938 -8.519531 4.664062 -8.703125 4.125 -8.703125 L 2.625 -8.703125 L 2.625 -0.953125 C 2.632812 -0.722656 2.71875 -0.523438 2.875 -0.359375 C 3.039062 -0.203125 3.234375 -0.125 3.453125 -0.125 L 3.625 -0.125 L 3.625 0 L 0.78125 0 L 0.78125 -0.125 L 0.953125 -0.125 C 1.171875 -0.125 1.359375 -0.203125 1.515625 -0.359375 C 1.679688 -0.523438 1.769531 -0.722656 1.78125 -0.953125 L 1.78125 -8.21875 C 1.75 -8.4375 1.65625 -8.613281 1.5 -8.75 C 1.351562 -8.894531 1.171875 -8.96875 0.953125 -8.96875 L 0.796875 -8.96875 L 0.78125 -9.09375 L 4.171875 -9.09375 C 5.003906 -9.09375 5.65625 -8.867188 6.125 -8.421875 C 6.601562 -7.984375 6.84375 -7.375 6.84375 -6.59375 Z M 6.84375 -6.59375 "/></g></g></g><g fill="#584910" fill-opacity="1"><g transform="translate(169.652803, 298.940136)"><g><path d="M 0.953125 -0.125 C 1.171875 -0.125 1.359375 -0.203125 1.515625 -0.359375 C 1.679688 -0.523438 1.769531 -0.722656 1.78125 -0.953125 L 1.78125 -8.15625 C 1.769531 -8.382812 1.679688 -8.578125 1.515625 -8.734375 C 1.359375 -8.890625 1.171875 -8.96875 0.953125 -8.96875 L 0.78125 -8.96875 L 0.78125 -9.09375 L 3.625 -9.09375 L 3.625 -8.96875 L 3.453125 -8.96875 C 3.234375 -8.96875 3.039062 -8.890625 2.875 -8.734375 C 2.71875 -8.578125 2.632812 -8.382812 2.625 -8.15625 L 2.625 -0.953125 C 2.625 -0.722656 2.707031 -0.523438 2.875 -0.359375 C 3.039062 -0.203125 3.234375 -0.125 3.453125 -0.125 L 3.625 -0.125 L 3.625 0 L 0.78125 0 L 0.78125 -0.125 Z M 0.953125 -0.125 "/></g></g></g><g fill="#584910" fill-opacity="1"><g transform="translate(184.445435, 298.940136)"><g><path d="M 7.65625 -7.9375 C 7.65625 -8.144531 7.582031 -8.320312 7.4375 -8.46875 C 7.289062 -8.625 7.117188 -8.707031 6.921875 -8.71875 L 4.453125 -8.71875 L 4.453125 -0.9375 C 4.453125 -0.707031 4.53125 -0.515625 4.6875 -0.359375 C 4.851562 -0.203125 5.050781 -0.125 5.28125 -0.125 L 5.453125 -0.125 L 5.453125 0 L 2.59375 0 L 2.59375 -0.125 L 2.765625 -0.125 C 2.992188 -0.125 3.1875 -0.203125 3.34375 -0.359375 C 3.507812 -0.515625 3.59375 -0.703125 3.59375 -0.921875 L 3.59375 -8.71875 L 1.125 -8.71875 C 0.914062 -8.707031 0.738281 -8.625 0.59375 -8.46875 C 0.457031 -8.320312 0.390625 -8.144531 0.390625 -7.9375 L 0.390625 -7.71875 L 0.265625 -7.703125 L 0.265625 -9.34375 C 0.390625 -9.289062 0.613281 -9.238281 0.9375 -9.1875 C 1.257812 -9.132812 1.550781 -9.109375 1.8125 -9.109375 L 6.21875 -9.109375 C 6.632812 -9.109375 6.984375 -9.140625 7.265625 -9.203125 C 7.554688 -9.273438 7.726562 -9.320312 7.78125 -9.34375 L 7.78125 -7.703125 L 7.65625 -7.71875 Z M 7.65625 -7.9375 "/></g></g></g><g fill="#584910" fill-opacity="1"><g transform="translate(202.876962, 298.940136)"><g><path d="M 9.3125 -0.125 L 9.421875 -0.125 L 9.421875 0 L 6.484375 0 L 6.484375 -0.125 L 6.609375 -0.125 C 6.785156 -0.125 6.921875 -0.179688 7.015625 -0.296875 C 7.109375 -0.421875 7.15625 -0.535156 7.15625 -0.640625 C 7.15625 -0.742188 7.132812 -0.847656 7.09375 -0.953125 L 6.265625 -3.15625 L 2.765625 -3.15625 L 1.890625 -0.9375 C 1.847656 -0.832031 1.828125 -0.726562 1.828125 -0.625 C 1.828125 -0.53125 1.875 -0.421875 1.96875 -0.296875 C 2.0625 -0.179688 2.195312 -0.125 2.375 -0.125 L 2.5 -0.125 L 2.5 0 L -0.109375 0 L -0.109375 -0.125 L 0 -0.125 C 0.21875 -0.125 0.429688 -0.191406 0.640625 -0.328125 C 0.847656 -0.472656 1.015625 -0.679688 1.140625 -0.953125 L 4.078125 -7.9375 C 4.398438 -8.644531 4.5625 -9.09375 4.5625 -9.28125 L 4.6875 -9.28125 L 8.171875 -0.953125 C 8.285156 -0.679688 8.445312 -0.472656 8.65625 -0.328125 C 8.863281 -0.191406 9.082031 -0.125 9.3125 -0.125 Z M 2.921875 -3.546875 L 6.109375 -3.546875 L 4.546875 -7.71875 Z M 2.921875 -3.546875 "/></g></g></g><g fill="#584910" fill-opacity="1"><g transform="translate(222.530105, 298.940136)"><g><path d="M 0.953125 -0.125 C 1.171875 -0.125 1.359375 -0.203125 1.515625 -0.359375 C 1.679688 -0.523438 1.769531 -0.722656 1.78125 -0.953125 L 1.78125 -8.15625 C 1.769531 -8.375 1.679688 -8.5625 1.515625 -8.71875 C 1.359375 -8.882812 1.171875 -8.96875 0.953125 -8.96875 L 0.78125 -8.96875 L 0.78125 -9.09375 L 3.625 -9.09375 L 3.625 -8.96875 L 3.453125 -8.96875 C 3.140625 -8.96875 2.90625 -8.832031 2.75 -8.5625 C 2.664062 -8.4375 2.625 -8.300781 2.625 -8.15625 L 2.625 -0.40625 L 4.484375 -0.40625 C 5.128906 -0.40625 5.617188 -0.546875 5.953125 -0.828125 C 6.296875 -1.117188 6.578125 -1.546875 6.796875 -2.109375 L 6.921875 -2.109375 L 6.171875 0 L 0.78125 0 L 0.78125 -0.125 Z M 0.953125 -0.125 "/></g></g></g><g fill="#584910" fill-opacity="1"><g transform="translate(240.233839, 298.940136)"><g><path d="M 0.953125 -0.125 C 1.171875 -0.125 1.359375 -0.203125 1.515625 -0.359375 C 1.679688 -0.523438 1.769531 -0.722656 1.78125 -0.953125 L 1.78125 -8.15625 C 1.769531 -8.382812 1.679688 -8.578125 1.515625 -8.734375 C 1.359375 -8.890625 1.171875 -8.96875 0.953125 -8.96875 L 0.78125 -8.96875 L 0.78125 -9.09375 L 3.625 -9.09375 L 3.625 -8.96875 L 3.453125 -8.96875 C 3.234375 -8.96875 3.039062 -8.890625 2.875 -8.734375 C 2.71875 -8.578125 2.632812 -8.382812 2.625 -8.15625 L 2.625 -0.953125 C 2.625 -0.722656 2.707031 -0.523438 2.875 -0.359375 C 3.039062 -0.203125 3.234375 -0.125 3.453125 -0.125 L 3.625 -0.125 L 3.625 0 L 0.78125 0 L 0.78125 -0.125 Z M 0.953125 -0.125 "/></g></g></g><g fill="#584910" fill-opacity="1"><g transform="translate(255.026471, 298.940136)"><g><path d="M 7.65625 -7.9375 C 7.65625 -8.144531 7.582031 -8.320312 7.4375 -8.46875 C 7.289062 -8.625 7.117188 -8.707031 6.921875 -8.71875 L 4.453125 -8.71875 L 4.453125 -0.9375 C 4.453125 -0.707031 4.53125 -0.515625 4.6875 -0.359375 C 4.851562 -0.203125 5.050781 -0.125 5.28125 -0.125 L 5.453125 -0.125 L 5.453125 0 L 2.59375 0 L 2.59375 -0.125 L 2.765625 -0.125 C 2.992188 -0.125 3.1875 -0.203125 3.34375 -0.359375 C 3.507812 -0.515625 3.59375 -0.703125 3.59375 -0.921875 L 3.59375 -8.71875 L 1.125 -8.71875 C 0.914062 -8.707031 0.738281 -8.625 0.59375 -8.46875 C 0.457031 -8.320312 0.390625 -8.144531 0.390625 -7.9375 L 0.390625 -7.71875 L 0.265625 -7.703125 L 0.265625 -9.34375 C 0.390625 -9.289062 0.613281 -9.238281 0.9375 -9.1875 C 1.257812 -9.132812 1.550781 -9.109375 1.8125 -9.109375 L 6.21875 -9.109375 C 6.632812 -9.109375 6.984375 -9.140625 7.265625 -9.203125 C 7.554688 -9.273438 7.726562 -9.320312 7.78125 -9.34375 L 7.78125 -7.703125 L 7.65625 -7.71875 Z M 7.65625 -7.9375 "/></g></g></g><g fill="#584910" fill-opacity="1"><g transform="translate(273.457992, 298.940136)"><g><path d="M 8.75 -8.96875 L 8.5625 -8.96875 C 8.300781 -8.96875 8.054688 -8.894531 7.828125 -8.75 C 7.597656 -8.613281 7.40625 -8.4375 7.25 -8.21875 L 4.703125 -4.0625 L 4.703125 -0.953125 C 4.703125 -0.722656 4.78125 -0.523438 4.9375 -0.359375 C 5.09375 -0.203125 5.289062 -0.125 5.53125 -0.125 L 5.6875 -0.125 L 5.6875 0 L 2.84375 0 L 2.84375 -0.125 L 3.015625 -0.125 C 3.242188 -0.125 3.4375 -0.203125 3.59375 -0.359375 C 3.757812 -0.515625 3.84375 -0.707031 3.84375 -0.9375 L 3.84375 -4.0625 L 1.375 -8.21875 C 1.238281 -8.425781 1.050781 -8.601562 0.8125 -8.75 C 0.570312 -8.894531 0.320312 -8.96875 0.0625 -8.96875 L -0.109375 -8.96875 L -0.109375 -9.09375 L 3.078125 -9.09375 L 3.078125 -8.96875 L 2.921875 -8.96875 C 2.722656 -8.96875 2.570312 -8.878906 2.46875 -8.703125 C 2.414062 -8.609375 2.390625 -8.515625 2.390625 -8.421875 C 2.390625 -8.335938 2.410156 -8.25 2.453125 -8.15625 L 4.40625 -4.53125 L 6.484375 -8.171875 C 6.523438 -8.265625 6.546875 -8.351562 6.546875 -8.4375 C 6.546875 -8.519531 6.519531 -8.609375 6.46875 -8.703125 C 6.363281 -8.878906 6.210938 -8.96875 6.015625 -8.96875 L 5.859375 -8.96875 L 5.859375 -9.09375 L 8.75 -9.09375 Z M 8.75 -8.96875 "/></g></g></g></svg>